<?xml version="1.0" encoding="utf-8"?>
<svg version="1.1" xmlns:xlink="http://www.w3.org/1999/xlink" width="25px" height="25px" xmlns="http://www.w3.org/2000/svg">
  <g transform="matrix(1 0 0 1 -15 -593 )">
    <path d="M 18.8151041666667 0.948660714285715  L 23.8932291666667 5.30133928571428  C 24.1970486111111 5.56175595238095  24.4574652777778 5.91517857142857  24.6744791666667 6.36160714285714  C 24.8914930555556 6.80803571428572  25 7.2172619047619  25 7.58928571428572  L 25 23.6607142857143  C 25 24.0327380952381  24.8480902777778 24.3489583333333  24.5442708333333 24.609375  C 24.2404513888889 24.8697916666667  23.8715277777778 25  23.4375 25  L 1.5625 25  C 1.12847222222222 25  0.759548611111111 24.8697916666667  0.455729166666667 24.609375  C 0.151909722222222 24.3489583333333  0 24.0327380952381  0 23.6607142857143  L 0 1.33928571428572  C 0 0.967261904761904  0.151909722222222 0.651041666666666  0.455729166666667 0.390625  C 0.759548611111111 0.130208333333334  1.12847222222222 0  1.5625 0  L 16.1458333333333 0  C 16.5798611111111 0  17.0572916666667 0.0930059523809534  17.578125 0.279017857142858  C 18.0989583333333 0.465029761904762  18.5112847222222 0.688244047619047  18.8151041666667 0.948660714285715  Z M 17.333984375 2.20424107142857  C 17.2037760416667 2.09263392857143  16.9813368055556 1.99032738095238  16.6666666666667 1.89732142857143  L 16.6666666666667 7.14285714285714  L 22.7864583333333 7.14285714285714  C 22.6779513888889 6.87313988095238  22.55859375 6.68247767857143  22.4283854166667 6.57087053571428  L 17.333984375 2.20424107142857  Z M 2 23  L 23 23  L 23 8.92857142857143  L 16.1458333333333 8.92857142857143  C 15.7118055555556 8.92857142857143  15.3428819444444 8.79836309523809  15.0390625 8.53794642857143  C 14.7352430555556 8.27752976190476  14.5833333333333 7.96130952380952  14.5833333333333 7.58928571428572  L 14.5833333333333 2  L 2 2  L 2 23  Z M 6.25 10.7142857142857  L 12.5 10.7142857142857  C 13.0642361111111 10.7142857142857  13.5525173611111 10.8909970238095  13.96484375 11.2444196428571  C 14.3771701388889 11.5978422619048  14.5833333333333 12.016369047619  14.5833333333333 12.5  L 14.5833333333333 17.8571428571429  C 14.5833333333333 18.3407738095238  14.3771701388889 18.7593005952381  13.96484375 19.1127232142857  C 13.5525173611111 19.4661458333333  13.0642361111111 19.6428571428571  12.5 19.6428571428571  L 6.25 19.6428571428571  C 5.68576388888889 19.6428571428571  5.19748263888889 19.4661458333333  4.78515625 19.1127232142857  C 4.37282986111111 18.7593005952381  4.16666666666667 18.3407738095238  4.16666666666667 17.8571428571429  L 4.16666666666667 12.5  C 4.16666666666667 12.016369047619  4.37282986111111 11.5978422619048  4.78515625 11.2444196428571  C 5.19748263888889 10.8909970238095  5.68576388888889 10.7142857142857  6.25 10.7142857142857  Z M 20.3125 10.7142857142857  C 20.3559027777778 10.7142857142857  20.4210069444444 10.7235863095238  20.5078125 10.7421875  C 20.7248263888889 10.8165922619048  20.8333333333333 10.9561011904762  20.8333333333333 11.1607142857143  L 20.8333333333333 19.1964285714286  C 20.8333333333333 19.4010416666667  20.7248263888889 19.5405505952381  20.5078125 19.6149553571429  C 20.4210069444444 19.633556547619  20.3559027777778 19.6428571428571  20.3125 19.6428571428571  C 20.1605902777778 19.6428571428571  20.0358072916667 19.6010044642857  19.9381510416667 19.5172991071429  L 15.625 15.8063616071429  L 15.625 14.55078125  L 19.9381510416667 10.83984375  C 20.0358072916667 10.7561383928571  20.1605902777778 10.7142857142857  20.3125 10.7142857142857  Z " fill-rule="nonzero" fill="#aaaaaa" stroke="none" transform="matrix(1 0 0 1 15 593 )" />
  </g>
</svg>