<?xml version="1.0" encoding="utf-8"?>
<svg version="1.1" xmlns:xlink="http://www.w3.org/1999/xlink" width="25px" height="25px" xmlns="http://www.w3.org/2000/svg">
  <g transform="matrix(1 0 0 1 -15 -274 )">
    <path d="M 7.60416666666667 5.078125  C 8.09027777777778 5.68576388888889  8.33333333333333 6.42361111111111  8.33333333333333 7.29166666666667  C 8.33333333333333 8.15972222222222  8.09027777777778 8.89756944444444  7.60416666666667 9.50520833333333  C 7.11805555555556 10.1128472222222  6.52777777777778 10.4166666666667  5.83333333333333 10.4166666666667  C 5.13888888888889 10.4166666666667  4.54861111111111 10.1128472222222  4.0625 9.50520833333333  C 3.57638888888889 8.89756944444444  3.33333333333333 8.15972222222222  3.33333333333333 7.29166666666667  C 3.33333333333333 6.42361111111111  3.57638888888889 5.68576388888889  4.0625 5.078125  C 4.54861111111111 4.47048611111111  5.13888888888889 4.16666666666667  5.83333333333333 4.16666666666667  C 6.52777777777778 4.16666666666667  7.11805555555556 4.47048611111111  7.60416666666667 5.078125  Z M 16.25 6.77083333333333  L 21.6666666666667 13.5416666666667  L 21.6666666666667 20.8333333333333  L 3.33333333333333 20.8333333333333  L 3.33333333333333 17.7083333333333  L 7.5 12.5  L 9.58333333333333 15.1041666666667  L 16.25 6.77083333333333  Z M 23.2096354166667 2.23795572916667  C 23.1271701388889 2.13487413194444  23.0295138888889 2.08333333333333  22.9166666666667 2  L 2.08333333333333 2  C 1.97048611111111 2.08333333333333  1.87282986111111 2.13487413194444  1.79036458333333 2.23795572916667  C 1.70789930555556 2.34103732638889  1.66666666666667 2.46310763888889  2 2.60416666666667  L 2 22.3958333333333  C 1.66666666666667 22.5368923611111  1.70789930555556 22.6589626736111  1.79036458333333 22.7620442708333  C 1.87282986111111 22.8651258680556  1.97048611111111 22.9166666666667  2.08333333333333 23  L 22.9166666666667 23  C 23.0295138888889 22.9166666666667  23.1271701388889 22.8651258680556  23.2096354166667 22.7620442708333  C 23.2921006944444 22.6589626736111  23.3333333333333 22.5368923611111  23 22.3958333333333  L 23 2.60416666666667  C 23.3333333333333 2.46310763888889  23.2921006944444 2.34103732638889  23.2096354166667 2.23795572916667  Z M 24.3880208333333 0.764973958333334  C 24.7960069444444 1.27495659722222  25 1.88802083333333  25 2.60416666666667  L 25 22.3958333333333  C 25 23.1119791666667  24.7960069444444 23.7250434027778  24.3880208333333 24.2350260416667  C 23.9800347222222 24.7450086805556  23.4895833333333 25  22.9166666666667 25  L 2.08333333333333 25  C 1.51041666666667 25  1.01996527777778 24.7450086805556  0.611979166666667 24.2350260416667  C 0.203993055555556 23.7250434027778  0 23.1119791666667  0 22.3958333333333  L 0 2.60416666666667  C 0 1.88802083333333  0.203993055555556 1.27495659722222  0.611979166666667 0.764973958333334  C 1.01996527777778 0.254991319444442  1.51041666666667 0  2.08333333333333 0  L 22.9166666666667 0  C 23.4895833333333 0  23.9800347222222 0.254991319444442  24.3880208333333 0.764973958333334  Z " fill-rule="nonzero" fill="#aaaaaa" stroke="none" transform="matrix(1 0 0 1 15 274 )" />
  </g>
</svg>