<?xml version="1.0" encoding="utf-8"?>
<svg version="1.1" xmlns:xlink="http://www.w3.org/1999/xlink" width="30px" height="30px" xmlns="http://www.w3.org/2000/svg">
  <g transform="matrix(1 0 0 1 -13 -226 )">
    <path d="M 29.375 2.14285714285714  L 27.5 2.14285714285714  C 27.5 5.05580357142857  26.806640625 7.63113839285714  25.419921875 9.86886160714286  C 24.033203125 12.1065848214286  22.2981770833333 13.8169642857143  20.21484375 15  C 22.2981770833333 16.1830357142857  24.033203125 17.8934151785714  25.419921875 20.1311383928571  C 26.806640625 22.3688616071429  27.5 24.9441964285714  27.5 27.8571428571429  L 29.375 27.8571428571429  C 29.5572916666667 27.8571428571429  29.70703125 27.9073660714286  29.82421875 28.0078125  C 29.94140625 28.1082589285714  30 28.2366071428571  30 28.3928571428571  L 30 29.4642857142857  C 30 29.6205357142857  29.94140625 29.7488839285714  29.82421875 29.8493303571429  C 29.70703125 29.9497767857143  29.5572916666667 30  29.375 30  L 0.625 30  C 0.442708333333333 30  0.29296875 29.9497767857143  0.17578125 29.8493303571429  C 0.05859375 29.7488839285714  0 29.6205357142857  0 29.4642857142857  L 0 28.3928571428571  C 0 28.2366071428571  0.05859375 28.1082589285714  0.17578125 28.0078125  C 0.29296875 27.9073660714286  0.442708333333333 27.8571428571429  0.625 27.8571428571429  L 2.5 27.8571428571429  C 2.5 24.9441964285714  3.193359375 22.3688616071429  4.580078125 20.1311383928571  C 5.966796875 17.8934151785714  7.70182291666667 16.1830357142857  9.78515625 15  C 7.70182291666667 13.8169642857143  5.966796875 12.1065848214286  4.580078125 9.86886160714286  C 3.193359375 7.63113839285714  2.5 5.05580357142857  2.5 2.14285714285714  L 0.625 2.14285714285714  C 0.442708333333333 2.14285714285714  0.29296875 2.09263392857143  0.17578125 1.9921875  C 0.05859375 1.89174107142857  0 1.76339285714286  0 1.60714285714286  L 0 0.535714285714287  C 0 0.379464285714283  0.05859375 0.251116071428571  0.17578125 0.150669642857142  C 0.29296875 0.0502232142857129  0.442708333333333 0  0.625 0  L 29.375 0  C 29.5572916666667 0  29.70703125 0.0502232142857129  29.82421875 0.150669642857142  C 29.94140625 0.251116071428571  30 0.379464285714283  30 0.535714285714287  L 30 1.60714285714286  C 30 1.76339285714286  29.94140625 1.89174107142857  29.82421875 1.9921875  C 29.70703125 2.09263392857143  29.5572916666667 2.14285714285714  29.375 2.14285714285714  Z M 16.474609375 14.3889508928571  C 16.6243489583333 14.2047991071429  16.8229166666667 14.0736607142857  17.0703125 13.9955357142857  C 18.0729166666667 13.671875  19.04296875 13.1556919642857  19.98046875 12.4469866071429  C 20.91796875 11.73828125  21.7610677083333 10.8872767857143  22.509765625 9.89397321428571  C 23.2584635416667 8.90066964285714  23.8606770833333 7.72879464285714  24.31640625 6.37834821428571  C 24.7721354166667 5.02790178571428  25 3.61607142857143  25 2.14285714285714  L 5 2.14285714285714  C 5 3.61607142857143  5.22786458333333 5.02790178571428  5.68359375 6.37834821428571  C 6.13932291666667 7.72879464285714  6.74153645833333 8.90066964285714  7.490234375 9.89397321428571  C 8.23893229166667 10.8872767857143  9.08203125 11.73828125  10.01953125 12.4469866071429  C 10.95703125 13.1556919642857  11.9270833333333 13.671875  12.9296875 13.9955357142857  C 13.1770833333333 14.0736607142857  13.3756510416667 14.2047991071429  13.525390625 14.3889508928571  C 13.6751302083333 14.5731026785714  13.75 14.7767857142857  13.75 15  C 13.75 15.2232142857143  13.6751302083333 15.4268973214286  13.525390625 15.6110491071429  C 13.3756510416667 15.7952008928571  13.1770833333333 15.9263392857143  12.9296875 16.0044642857143  C 11.1458333333333 16.5736607142857  9.55729166666667 17.6674107142857  8.1640625 19  L 21.8359375 19  C 20.4427083333333 17.6674107142857  18.8541666666667 16.5736607142857  17.0703125 16.0044642857143  C 16.8229166666667 15.9263392857143  16.6243489583333 15.7952008928571  16.474609375 15.6110491071429  C 16.3248697916667 15.4268973214286  16.25 15.2232142857143  16.25 15  C 16.25 14.7767857142857  16.3248697916667 14.5731026785714  16.474609375 14.3889508928571  Z " fill-rule="nonzero" fill="#ffffff" stroke="none" transform="matrix(1 0 0 1 13 226 )" />
  </g>
</svg>